# xmcd
#
# Track frame offsets: 
#        150
#        36488
#        58450
#        81680
#        118085
#        139145
#        165435
#        185676
#        210054
#        232694
#        254437
#
# Disc length: 3827 seconds
#
# Revision: 0
# Processed by: cddbd v1.5.1PL0 Copyright (c) Steve Scherf et al.
# Submitted via: ExactAudioCopy v0.95a5
#
DISCID=9d0ef10b
DTITLE=Jorma Kaukonen and Jack Cassidy - 2000-11-30 Paradise Lounge Bost
DTITLE=on, MA
DYEAR=2000
DGENRE=Blues
TTITLE0=99 Year Blues
TTITLE1=Third Week In The Chelsea
TTITLE2=Genesis
TTITLE3=Another Day Done Gone >
TTITLE4=Day To Day Out The Window Blues
TTITLE5=Follow The Drinking Guard
TTITLE6=Nine Pound Hammer
TTITLE7=I Know You Rider
TTITLE8=Walkin' Blues
TTITLE9=Hesitation Blues
TTITLE10=Mann's Fate
EXTD=
EXTT0=
EXTT1=
EXTT2=
EXTT3=
EXTT4=
EXTT5=
EXTT6=
EXTT7=
EXTT8=
EXTT9=
EXTT10=
PLAYORDER=
